<?xml version="1.0" encoding="UTF-8"?>
<svg version="1.1" xmlns="http://www.w3.org/2000/svg" width="300" height="300">
<path d="M0 0 C6.89761032 4.0283175 10.54628955 9.81948416 12.6875 17.4375 C13.05649123 20.55308338 13.04024164 23.61622873 12.98046875 26.75 C12.97622391 27.60432617 12.97197906 28.45865234 12.96760559 29.33886719 C12.95095703 32.03874682 12.91333223 34.73785011 12.875 37.4375 C12.85993523 39.27993705 12.84624998 41.12238593 12.83398438 42.96484375 C12.80109906 47.45602339 12.74941456 51.94663056 12.6875 56.4375 C14.25818237 56.42417633 14.25818237 56.42417633 15.8605957 56.4105835 C25.74729168 56.32936117 35.63391962 56.26946914 45.52087402 56.23025131 C50.60341337 56.20941089 55.68568253 56.18115806 60.76806641 56.13574219 C65.6764083 56.09215795 70.58449094 56.06833624 75.49301147 56.05799103 C77.36205117 56.05062221 79.2310773 56.03623263 81.1000061 56.01457977 C83.72583247 55.98537824 86.35059889 55.98155093 88.9765625 55.98339844 C89.74261307 55.96901733 90.50866364 55.95463623 91.29792786 55.93981934 C97.73434897 55.98855474 103.11599066 57.8952678 107.74609375 62.47265625 C108.20113281 63.14167969 108.65617188 63.81070313 109.125 64.5 C109.59808594 65.17160156 110.07117188 65.84320313 110.55859375 66.53515625 C112.89714963 70.47590613 112.82170088 73.86049482 112.84140015 78.35014343 C112.84797353 79.41132872 112.84797353 79.41132872 112.8546797 80.4939521 C112.86806127 82.87056386 112.87424513 85.24713854 112.88037109 87.6237793 C112.88827261 89.32550728 112.8965416 91.02723359 112.90515137 92.72895813 C112.93136727 98.3231954 112.94667929 103.91744014 112.9609375 109.51171875 C112.96629749 111.43791013 112.971675 113.36410146 112.97706985 115.29029274 C112.99869858 123.30343699 113.01743481 131.31657924 113.02869225 139.32974529 C113.04492824 150.8110045 113.07809765 162.29192512 113.13509309 173.77305669 C113.17380694 181.84706078 113.19332669 189.92097438 113.19861281 197.99506885 C113.20226448 202.81662139 113.21426609 207.63781276 113.24671555 212.45926476 C113.27682133 216.99756589 113.28309912 221.5352878 113.27133179 226.07366753 C113.27111126 227.73610342 113.27939935 229.39856638 113.29698563 231.06090927 C113.46012283 247.37413086 113.46012283 247.37413086 107.6875 253.4375 C102.45728077 258.28502026 98.77894897 259.68610954 91.65460205 259.70492554 C90.94629077 259.70945665 90.23797948 259.71398776 89.50820422 259.71865618 C87.13463494 259.73131685 84.76129463 259.72967875 82.38769531 259.72802734 C80.68581853 259.73401166 78.98394446 259.74081698 77.28207397 259.74838257 C72.65793972 259.7660621 68.03387948 259.77073884 63.4097147 259.77201414 C60.5197453 259.77343547 57.62979474 259.77770478 54.73983002 259.78300858 C44.65466619 259.80151703 34.56955525 259.80967838 24.484375 259.80810547 C15.08901887 259.80690463 5.69389267 259.82799354 -3.70140529 259.8595928 C-11.77119423 259.88576502 -19.84090813 259.89647233 -27.91073918 259.89519465 C-32.72885164 259.89468519 -37.54675989 259.90035926 -42.36483002 259.92155075 C-46.89900177 259.94094845 -51.4327749 259.94104717 -55.96696091 259.92651749 C-57.62776905 259.92443001 -59.28860223 259.92912664 -60.94936752 259.9412384 C-76.54616074 260.04758274 -76.54616074 260.04758274 -83.3125 255.4375 C-85.37109375 253.40234375 -85.37109375 253.40234375 -86.75 251.375 C-87.45962891 250.36759766 -87.45962891 250.36759766 -88.18359375 249.33984375 C-90.51019821 245.41923346 -90.44446585 242.06693458 -90.45967102 237.6007843 C-90.46334771 236.90149455 -90.4670244 236.20220479 -90.4708125 235.48172444 C-90.48184708 233.13274704 -90.4856928 230.78381389 -90.48950195 228.43481445 C-90.49576683 226.75279093 -90.50241365 225.07076879 -90.50941467 223.38874817 C-90.53045631 217.85943567 -90.54081779 212.33012289 -90.55078125 206.80078125 C-90.5548289 204.89687778 -90.55894582 202.99297445 -90.56313133 201.08907127 C-90.58218396 192.14350441 -90.59641432 183.1979458 -90.6047433 174.25236255 C-90.61451359 163.9293533 -90.64082738 153.6065586 -90.68124419 143.28362495 C-90.71141676 135.30303654 -90.7262133 127.32250958 -90.72952431 119.34186524 C-90.73187369 114.57626115 -90.74081936 109.81088625 -90.76598549 105.0453434 C-90.78929089 100.5596272 -90.79348955 96.07429067 -90.78322411 91.58852959 C-90.78272922 89.9454535 -90.78903579 88.30235858 -90.80278015 86.6593399 C-90.87906262 76.99690409 -90.70480565 69.97555438 -84.44268799 62.0799408 C-83.47960724 61.12565941 -83.47960724 61.12565941 -82.49707031 60.15209961 C-81.39507294 59.04571388 -81.39507294 59.04571388 -80.27081299 57.91697693 C-79.48535095 57.14902298 -78.69988892 56.38106903 -77.890625 55.58984375 C-77.07180847 54.77431534 -76.25299194 53.95878693 -75.40936279 53.11854553 C-72.80298821 50.52784268 -70.18278229 47.95162699 -67.5625 45.375 C-65.81684298 43.64084462 -64.07204266 41.90582641 -62.328125 40.16992188 C-60.641393 38.49662131 -58.95391702 36.82407031 -57.265625 35.15234375 C-56.48825989 34.38236557 -55.71089478 33.61238739 -54.90997314 32.81907654 C-50.7410547 28.7217638 -46.48298164 24.7899151 -42.05807495 20.97108459 C-39.87555753 19.05362176 -37.84698512 17.02129595 -35.83984375 14.921875 C-35.08509766 14.14585938 -34.33035156 13.36984375 -33.55273438 12.5703125 C-32.00787368 10.97172891 -30.46886384 9.36747183 -28.93554688 7.7578125 C-20.87509207 -0.48881192 -11.44595518 -5.08709119 0 0 Z " fill="#FD0101" transform="translate(136.3125,17.5625)"/>
<path d="M0 0 C14.025 -0.0825 28.05 -0.165 42.5 -0.25 C46.91697266 -0.28641602 51.33394531 -0.32283203 55.88476562 -0.36035156 C61.30761719 -0.37841797 61.30761719 -0.37841797 63.85192871 -0.3817749 C65.61661826 -0.38788912 67.38129183 -0.40189904 69.14587402 -0.42230225 C71.82996332 -0.45176711 74.5130378 -0.45561803 77.19726562 -0.45410156 C78.36260708 -0.47569021 78.36260708 -0.47569021 79.55149078 -0.497715 C86.01612537 -0.44912817 91.40586336 1.43539813 96.05859375 6.03515625 C96.51363281 6.70417969 96.96867187 7.37320313 97.4375 8.0625 C97.91058594 8.73410156 98.38367188 9.40570313 98.87109375 10.09765625 C101.20964963 14.03840613 101.13420088 17.42299482 101.15390015 21.91264343 C101.16047353 22.97382872 101.16047353 22.97382872 101.1671797 24.0564521 C101.18056127 26.43306386 101.18674513 28.80963854 101.19287109 31.1862793 C101.20077261 32.88800728 101.2090416 34.58973359 101.21765137 36.29145813 C101.24386727 41.8856954 101.25917929 47.47994014 101.2734375 53.07421875 C101.27879749 55.00041013 101.284175 56.92660146 101.28956985 58.85279274 C101.31119858 66.86593699 101.32993481 74.87907924 101.34119225 82.89224529 C101.35742824 94.3735045 101.39059765 105.85442512 101.44759309 117.33555669 C101.48630694 125.40956078 101.50582669 133.48347438 101.51111281 141.55756885 C101.51476448 146.37912139 101.52676609 151.20031276 101.55921555 156.02176476 C101.58932133 160.56006589 101.59559912 165.0977878 101.58383179 169.63616753 C101.58361126 171.29860342 101.59189935 172.96106638 101.60948563 174.62340927 C101.77262283 190.93663086 101.77262283 190.93663086 96 197 C91.07648909 201.56325402 87.47568083 203.25390272 80.76269531 203.22705078 C78.87118744 203.22682419 78.87118744 203.22682419 76.94146729 203.22659302 C75.57035158 203.21638056 74.19923749 203.20594858 72.828125 203.1953125 C71.42136842 203.19158057 70.01460923 203.18873445 68.60784912 203.18673706 C64.91213761 203.17911476 61.21658425 203.15947845 57.52093506 203.1373291 C53.74705138 203.11684036 49.97314206 203.10772888 46.19921875 203.09765625 C38.79940721 203.07623112 31.3997258 203.04211226 24 203 C26.40918963 201.79491451 28.81933378 200.5918192 31.23046875 199.390625 C35.9971455 196.64790948 39.54654969 192.70093212 43.3125 188.75 C44.72072493 187.28209376 46.13326348 185.8183094 47.55078125 184.359375 C48.16606689 183.71452148 48.78135254 183.06966797 49.4152832 182.40527344 C51 181 51 181 53 181 C53 180.34 53 179.68 53 179 C54.46600342 177.54782104 54.46600342 177.54782104 56.49511719 175.86279297 C63.30129415 170.07113291 69.56912623 163.73151567 75.91015625 157.43994141 C77.47189016 155.89482862 79.03897863 154.35510956 80.61132812 152.82080078 C82.90429835 150.58281212 85.18017945 148.32861513 87.453125 146.0703125 C88.15109192 145.39501495 88.84905884 144.71971741 89.56817627 144.0239563 C94.78578659 138.7836286 98.28957158 133.35207333 99.49609375 125.9609375 C99.33129387 118.6877696 98.4938545 113.96566481 93.6875 108.25 C88.22280583 103.67490721 83.52352376 102.55472903 76.51611328 102.56762695 C75.67285429 102.55735316 74.8295953 102.54707937 73.960783 102.53649426 C71.24721871 102.5067461 68.53401693 102.49708635 65.8203125 102.48828125 C64.13857773 102.47280641 62.4568546 102.45600798 60.77514648 102.43786621 C54.55855938 102.3800513 48.34175566 102.34781079 42.125 102.3125 C21.273125 102.1578125 21.273125 102.1578125 0 102 C0 68.34 0 34.68 0 0 Z " fill="#01CC98" transform="translate(148,74)"/>
<path d="M0 0 C5.89958529 3.44545452 9.71611771 8.30006688 12.05070496 14.71353149 C13.52398812 21.01568002 13.00159099 27.65882551 12.90625 34.09765625 C12.89218668 35.8079374 12.87949128 37.51823024 12.86804199 39.22853088 C12.84009044 42.95956639 12.80232083 46.69033516 12.75732422 50.42120361 C12.68225253 56.67635983 12.63127497 62.93160683 12.58203125 69.18701172 C12.48100516 81.59112534 12.35488453 93.99491391 12.22393799 106.39874268 C12.16214615 112.29380829 12.10267277 118.18889732 12.04296875 124.08398438 C11.9266699 135.53517945 11.80792788 146.98634765 11.6875 158.4375 C12.73462158 158.42861755 13.78174316 158.41973511 14.8605957 158.4105835 C24.74729168 158.32936117 34.63391962 158.26946914 44.52087402 158.23025131 C49.60341337 158.20941089 54.68568253 158.18115806 59.76806641 158.13574219 C64.6764083 158.09215795 69.58449094 158.06833624 74.49301147 158.05799103 C76.36205117 158.05062221 78.2310773 158.03623263 80.1000061 158.01457977 C82.72583247 157.98537824 85.35059889 157.98155093 87.9765625 157.98339844 C88.74261307 157.96901733 89.50866364 157.95463623 90.29792786 157.93981934 C96.7313995 157.98853241 102.08297517 159.90710775 106.74609375 164.4375 C107.20113281 165.0975 107.65617188 165.7575 108.125 166.4375 C108.59808594 167.0975 109.07117188 167.7575 109.55859375 168.4375 C112.47774826 173.6091509 112.37331752 179.66901261 111.6875 185.4375 C109.37468582 192.07065107 106.18608117 197.1874935 100.24253845 201.00990295 C95.34638646 202.97605106 90.97373856 202.86454026 85.74438477 202.84155273 C84.65259918 202.84841599 83.5608136 202.85527924 82.4359436 202.86235046 C78.83346485 202.88062456 75.23142133 202.87677994 71.62890625 202.87109375 C69.1207617 202.8756552 66.61261841 202.88096066 64.10447693 202.88697815 C58.84980315 202.89591043 53.59524201 202.89371899 48.34057617 202.88354492 C42.27832998 202.87206613 36.21652631 202.88613916 30.15433842 202.9129414 C24.30770794 202.93781664 18.46124898 202.94026849 12.61457634 202.93382454 C10.13349611 202.93367126 7.65240738 202.93972112 5.17135811 202.95211601 C1.70057493 202.96701264 -1.76923719 202.95635738 -5.23999023 202.93920898 C-6.26203049 202.94887695 -7.28407074 202.95854492 -8.33708191 202.96850586 C-15.94411619 202.88990483 -21.01965671 201.0559978 -26.625 195.6875 C-27.09550781 195.25953125 -27.56601563 194.8315625 -28.05078125 194.390625 C-32.94398131 186.81601191 -31.61639828 176.59971638 -31.61889648 167.95898438 C-31.6265259 166.28607313 -31.63495474 164.61316538 -31.64411926 162.94026184 C-31.66598709 158.41347641 -31.67485211 153.88675849 -31.67994571 149.35992622 C-31.68359678 146.52889844 -31.68984056 143.69788815 -31.6969471 140.86686707 C-31.72140952 130.98268867 -31.73448768 121.09856258 -31.73803711 111.21435547 C-31.74167546 102.01199968 -31.77160052 92.80997676 -31.81344169 83.60772276 C-31.84815419 75.69496379 -31.86358567 67.78231519 -31.86428314 59.86948061 C-31.86507527 55.14862119 -31.87378552 50.42810165 -31.90228081 45.70732117 C-31.92847979 41.26824142 -31.93065665 36.82978309 -31.91462517 32.39066124 C-31.91281245 30.7653181 -31.91948549 29.13993904 -31.93544388 27.51467323 C-32.08241661 11.56988963 -32.08241661 11.56988963 -26.3125 5.4375 C-19.21979869 -1.76758688 -9.46497936 -4.24103883 0 0 Z " fill="#FDCC00" transform="translate(136.3125,17.5625)"/>
<path d="M0 0 C0 4.96497283 -3.6805952 7.5563394 -7 11 C-7.79535156 11.83273437 -8.59070313 12.66546875 -9.41015625 13.5234375 C-16.60262427 20.57138916 -16.60262427 20.57138916 -21.625 20.5625 C-22.73875 20.376875 -23.8525 20.19125 -25 20 C-24.484375 19.7525 -23.96875 19.505 -23.4375 19.25 C-22.633125 18.8375 -21.82875 18.425 -21 18 C-19.948125 17.46375 -18.89625 16.9275 -17.8125 16.375 C-13.38890085 13.83799519 -10.07274291 10.40511008 -6.5625 6.75 C-5.92634766 6.1003125 -5.29019531 5.450625 -4.63476562 4.78125 C-3.08270795 3.1941835 -1.53815441 1.60052498 0 0 Z " fill="#19CA98" transform="translate(197,257)"/>
<path d="M0 0 C0 0.99 0 1.98 0 3 C-2 5 -2 5 -3.9453125 5.1953125 C-5.96354167 5.13020833 -7.98177083 5.06510417 -10 5 C-6.66666667 3.33333333 -3.33333333 1.66666667 0 0 Z " fill="#1EC191" transform="translate(182,272)"/>
</svg>
