<?xml version="1.0" encoding="UTF-8"?>
<svg version="1.1" xmlns="http://www.w3.org/2000/svg" width="964" height="397">
<path d="M0 0 C318.12 0 636.24 0 964 0 C964 131.01 964 262.02 964 397 C645.88 397 327.76 397 0 397 C0 265.99 0 134.98 0 0 Z " fill="#FEFEFE" transform="translate(0,0)"/>
<path d="M0 0 C0.72219727 0.22703613 1.44439453 0.45407227 2.18847656 0.68798828 C22.89149312 7.30080282 42.66153163 17.58517393 59 32 C59.86367188 32.75410156 60.72734375 33.50820312 61.6171875 34.28515625 C64.10850105 36.49250549 66.55977501 38.73642429 69 41 C69.96292969 41.86431641 69.96292969 41.86431641 70.9453125 42.74609375 C92.14439653 62.65904088 106.63243802 91.1884476 114 119 C114.31541748 120.12921875 114.31541748 120.12921875 114.63720703 121.28125 C118.01181154 133.76434758 118.36643819 146.15252598 118.375 159 C118.37799103 160.19094269 118.37799103 160.19094269 118.38104248 161.40594482 C118.37827828 171.12712928 117.78605023 180.41555604 116 190 C115.80019531 191.28132812 115.60039062 192.56265625 115.39453125 193.8828125 C110.5515364 220.86056904 97.05339605 247.49922456 79 268 C78.2471875 268.86238281 77.494375 269.72476562 76.71875 270.61328125 C74.50994737 273.1057486 72.2648187 275.55843501 70 278 C69.42378906 278.64195312 68.84757812 279.28390625 68.25390625 279.9453125 C51.62079296 297.65272487 29.40661922 309.39409069 7 318 C5.98164063 318.40863281 4.96328125 318.81726563 3.9140625 319.23828125 C-34.40430814 333.45670245 -80.9432517 329.67939425 -117.6484375 312.94921875 C-121.51049471 311.0993032 -125.25669349 309.07914423 -129 307 C-130.01578125 306.45988281 -131.0315625 305.91976563 -132.078125 305.36328125 C-151.35510071 294.71971044 -168.67698237 279.48646065 -182 262 C-183.0828125 260.60007812 -183.0828125 260.60007812 -184.1875 259.171875 C-210.26940586 223.58870343 -221.25057799 177.83044855 -214.75 134.25 C-213.44450787 126.3125135 -211.48263075 118.65328976 -209 111 C-208.46246094 109.20369141 -208.46246094 109.20369141 -207.9140625 107.37109375 C-204.90313616 97.68156905 -200.79893483 88.91400953 -196 80 C-195.45601562 78.97261719 -194.91203125 77.94523437 -194.3515625 76.88671875 C-172.69688537 37.85548363 -135.42717371 10.64957847 -93.0625 -1.90234375 C-62.93657539 -10.36066415 -29.69340977 -9.43133511 0 0 Z " fill="#E95044" transform="translate(245,38)"/>
<path d="M0 0 C46.53 0 93.06 0 141 0 C139.59029826 3.52425435 138.29660769 6.39839932 136.41015625 9.61328125 C135.88309082 10.51481934 135.35602539 11.41635742 134.81298828 12.34521484 C134.23532715 13.32441895 133.65766602 14.30362305 133.0625 15.3125 C132.45132324 16.3535791 131.84014648 17.3946582 131.21044922 18.46728516 C129.50937915 21.36075333 127.80455971 24.25193847 126.09735107 27.14178467 C124.97675162 29.03936798 123.85762537 30.93781395 122.73876953 32.83642578 C113.98485786 47.68558532 105.1412897 62.46829984 96.06567383 77.12353516 C87.89249762 90.35493935 80.00383333 103.75571372 72.09539795 117.1463623 C70.37979416 120.04951531 68.66049296 122.95047048 66.94140625 125.8515625 C65.7524806 127.85930183 64.56366996 129.86710928 63.375 131.875 C62.83657471 132.78411133 62.29814941 133.69322266 61.7434082 134.62988281 C61.25831787 135.45069336 60.77322754 136.27150391 60.2734375 137.1171875 C59.85497559 137.82472168 59.43651367 138.53225586 59.00537109 139.26123047 C58.29747829 140.48551715 57.63245397 141.73509207 57 143 C84.72 143 112.44 143 141 143 C141 153.56 141 164.12 141 175 C94.8 175 48.6 175 1 175 C6.62131519 163.75736961 6.62131519 163.75736961 9.390625 159.13671875 C10.00929443 158.0993457 10.62796387 157.06197266 11.26538086 155.99316406 C11.92030518 154.90229492 12.57522949 153.81142578 13.25 152.6875 C14.67480911 150.3017536 16.09706574 147.91448801 17.51953125 145.52734375 C18.06771263 144.60853928 18.06771263 144.60853928 18.62696838 143.6711731 C22.39914657 137.34364507 26.12125 130.98709093 29.83950806 124.6277771 C35.0407176 115.73270986 40.25933642 106.85045684 45.58203125 98.02734375 C51.78516446 87.72341733 57.87548625 77.3508299 64 67 C64.62084473 65.95102539 65.24168945 64.90205078 65.88134766 63.82128906 C67.6089391 60.9020121 69.33588752 57.98235606 71.0625 55.0625 C71.56168945 54.21872803 72.06087891 53.37495605 72.57519531 52.50561523 C76.40903322 46.01822296 80.20286332 39.50937717 84 33 C56.28 33 28.56 33 0 33 C0 22.11 0 11.22 0 0 Z " fill="#FEFDFD" transform="translate(130,107)"/>
<path d="M0 0 C37.62 0 75.24 0 114 0 C112.13667634 4.65830914 110.02624364 8.95186371 107.6875 13.375 C107.24873535 14.20660645 106.8099707 15.03821289 106.35791016 15.89501953 C102.44808223 23.25269153 98.36253088 30.50500327 94.2409668 37.74560547 C89.75922087 45.62678197 85.36763864 53.555315 81 61.5 C76.2176348 70.19595723 71.40132712 78.87029987 66.5 87.5 C61.48035467 96.34158214 56.53568123 105.22260213 51.625 114.125 C51.2937915 114.72497803 50.96258301 115.32495605 50.62133789 115.94311523 C46.02741962 124.2680881 41.50841074 132.6272372 37 141 C62.08 141 87.16 141 113 141 C110.68015759 157.23889685 110.68015759 157.23889685 108.9375 164.8125 C108.76412109 165.59947266 108.59074219 166.38644531 108.41210938 167.19726562 C107.13314383 172.86685617 107.13314383 172.86685617 106 174 C104.43112365 174.09591199 102.85792208 174.12187996 101.28611755 174.12025452 C99.7568866 174.12231651 99.7568866 174.12231651 98.19676208 174.12442017 C97.068918 174.12082489 95.94107391 174.11722961 94.77905273 174.11352539 C93.59872467 174.11367142 92.41839661 174.11381744 91.20230103 174.1139679 C87.95657892 174.11338895 84.71089945 174.10835986 81.46518588 174.10139394 C78.07656968 174.09515962 74.68795272 174.09455654 71.29933167 174.09336853 C64.87844196 174.09025544 58.45756919 174.08204236 52.03668696 174.07201904 C44.72846175 174.0608572 37.42023576 174.05534727 30.11200416 174.05032361 C15.07465998 174.03985973 0.03733168 174.02226073 -15 174 C-13.47343193 170.10286577 -11.72953669 166.45499159 -9.76171875 162.7578125 C-9.28616798 161.8631855 -9.28616798 161.8631855 -8.80101013 160.95048523 C-7.76624952 159.00699807 -6.72716287 157.0658686 -5.6875 155.125 C-5.33129578 154.45794037 -4.97509155 153.79088074 -4.60809326 153.10360718 C0.61849381 143.31958237 5.98382318 133.6251561 11.4855957 123.99267578 C14.77471772 118.21892837 17.93902946 112.39763514 21 106.5 C24.56035887 99.64018306 28.29161384 92.89839388 32.125 86.1875 C38.099985 75.71845536 43.79992999 65.1152871 49.44384766 54.46557617 C49.76846481 53.8531456 50.09308197 53.24071503 50.42753601 52.60972595 C51.30496532 50.95298697 52.18074819 49.29537631 53.05639648 47.63769531 C55.67248908 42.74135318 58.34169749 37.87355461 61 33 C38.56 33 16.12 33 -7 33 C-5.87493696 20.62430661 -5.87493696 20.62430661 -4.0625 14.25 C-3.72347656 13.03828125 -3.38445312 11.8265625 -3.03515625 10.578125 C-2.69355469 9.39734375 -2.35195313 8.2165625 -2 7 C-1.34 4.69 -0.68 2.38 0 0 Z " fill="#E95246" transform="translate(429,109)"/>
<path d="M0 0 C1.1240625 -0.01224609 2.248125 -0.02449219 3.40625 -0.03710938 C16.20029503 -0.05952885 28.67972316 2.49422868 38.875 10.75 C48.98652769 21.02257014 49.7505436 30.75269774 49.67977905 44.55596924 C49.64914935 46.81336342 49.61785355 49.07074864 49.5859375 51.328125 C49.57473057 53.66508896 49.56619747 56.00206713 49.56021118 58.33905029 C49.5374311 64.45493291 49.47860083 70.56994456 49.4119873 76.68548584 C49.35033094 82.93994367 49.32314641 89.19454384 49.29296875 95.44921875 C49.22884735 107.6956927 49.12659936 119.94152359 49 132.1875 C45.27153308 132.69281187 41.54212492 133.1908133 37.8125 133.6875 C36.75740234 133.83058594 35.70230469 133.97367188 34.61523438 134.12109375 C33.08286133 134.32412109 33.08286133 134.32412109 31.51953125 134.53125 C30.58214111 134.65693359 29.64475098 134.78261719 28.67895508 134.91210938 C26.09682192 135.17754692 23.59349011 135.23686064 21 135.1875 C20.505 130.7325 20.505 130.7325 20 126.1875 C19.26136719 126.65800781 18.52273438 127.12851562 17.76171875 127.61328125 C5.09395116 135.38778156 -6.83011932 138.14061436 -21.6875 135.5625 C-32.01279946 132.81804308 -41.96951035 126.16871257 -47.8125 117.1875 C-54.68897234 105.19419134 -56.2092841 90.86674021 -53.12890625 77.37109375 C-48.56150417 64.68719354 -39.64035369 54.60214847 -27.4375 48.6875 C-11.71804628 43.08403542 5.64919484 48.52537439 20 55.1875 C19.87560651 44.18465956 19.87560651 44.18465956 16 34.1875 C9.27945162 27.98767208 3.04377697 28.00578538 -5.75 28 C-6.71421875 27.98775391 -7.6784375 27.97550781 -8.671875 27.96289062 C-14.50963552 27.95099302 -19.40619864 28.52212553 -25 30.1875 C-26.2684375 30.54070312 -27.536875 30.89390625 -28.84375 31.2578125 C-30.0503125 31.60585937 -31.256875 31.95390625 -32.5 32.3125 C-33.7271875 32.66570312 -34.954375 33.01890625 -36.21875 33.3828125 C-37.59546875 33.78113281 -37.59546875 33.78113281 -39 34.1875 C-38.32316607 28.93858384 -37.33222032 23.83892106 -36.125 18.6875 C-35.96386719 17.96691406 -35.80273438 17.24632812 -35.63671875 16.50390625 C-34.53869587 11.79687794 -33.27714231 7.46808962 -31 3.1875 C-29.0546875 2.1015625 -29.0546875 2.1015625 -26.875 1.8125 C-25.81925781 1.64621094 -25.81925781 1.64621094 -24.7421875 1.4765625 C-23.38480469 1.33347656 -23.38480469 1.33347656 -22 1.1875 C-21.38801758 1.1042749 -20.77603516 1.0210498 -20.14550781 0.93530273 C-13.43208448 0.07120633 -6.76183706 0.0038772 0 0 Z " fill="#E95246" transform="translate(604,150.8125)"/>
<path d="M0 0 C0.33 19.47 0.66 38.94 1 59 C3.64 56.36 6.28 53.72 9 51 C11.79296875 49.16015625 11.79296875 49.16015625 14.1875 48.0625 C14.98542969 47.68222656 15.78335938 47.30195313 16.60546875 46.91015625 C22.28401521 44.75175278 27.81128513 44.8169159 33.8125 44.8125 C34.67681641 44.80025391 35.54113281 44.78800781 36.43164062 44.77539062 C47.34868902 44.75067278 56.94099762 47.72147929 65.3046875 55.0078125 C72.00880537 62.06611018 77.13271947 71.35530518 77.12025452 81.27740479 C77.12231651 82.54777588 77.12231651 82.54777588 77.12442017 83.84381104 C77.11902725 85.22485016 77.11902725 85.22485016 77.11352539 86.63378906 C77.11367142 87.60973022 77.11381744 88.58567139 77.1139679 89.59118652 C77.1132714 92.81602198 77.10549126 96.04079963 77.09765625 99.265625 C77.09579114 101.50193246 77.09436767 103.73824033 77.09336853 105.97454834 C77.08955071 111.85999683 77.07972666 117.74542064 77.06866455 123.63085938 C77.05843466 129.63671535 77.05386752 135.64257532 77.04882812 141.6484375 C77.03810376 153.43230251 77.02103612 165.2161492 77 177 C70.09703277 177.82408236 63.32361342 178.12941257 56.375 178.0625 C55.46621094 178.05798828 54.55742188 178.05347656 53.62109375 178.04882812 C51.41398911 178.03721178 49.20703303 178.02088168 47 178 C46.99857498 176.90720734 46.99714996 175.81441467 46.99568176 174.68850708 C46.97897019 164.36068637 46.93606966 154.03325758 46.86790943 143.70564461 C46.83370349 138.39680522 46.80853938 133.08825166 46.80444336 127.77929688 C46.80014673 122.65023978 46.77157079 117.52182678 46.72656822 112.39297104 C46.7136368 110.44193151 46.70927 108.49081472 46.71384621 106.5397377 C47.04150167 91.94562744 47.04150167 91.94562744 41 79 C35.38016148 73.64154932 31.13454769 73.64525789 23.55078125 73.73046875 C16.65621128 74.25381895 12.83882708 76.84272107 8.1875 81.8125 C2.2204257 89.12522432 0.86877264 96.54099254 0.79467773 105.81958008 C0.77982834 106.97647339 0.77982834 106.97647339 0.76467896 108.15673828 C0.73320802 110.6943052 0.70836378 113.23189082 0.68359375 115.76953125 C0.66301177 117.53358941 0.64201497 119.29764278 0.62062073 121.06169128 C0.56552855 125.69599516 0.51606277 130.33034259 0.46777344 134.96472168 C0.41746436 139.6972235 0.36182747 144.42966237 0.30664062 149.16210938 C0.19921635 158.44135242 0.09773667 167.72065022 0 177 C-10.16278653 178.3550382 -19.47480665 178 -30 178 C-30 120.58 -30 63.16 -30 4 C-27.39388852 2.69694426 -25.08675169 2.57366186 -22.1875 2.24609375 C-20.45113281 2.04790039 -20.45113281 2.04790039 -18.6796875 1.84570312 C-17.46539063 1.71099609 -16.25109375 1.57628906 -15 1.4375 C-13.78570313 1.29892578 -12.57140625 1.16035156 -11.3203125 1.01757812 C-2.31750308 0 -2.31750308 0 0 0 Z " fill="#E95044" transform="translate(706,106)"/>
<path d="M0 0 C1.25425781 0.00902344 2.50851562 0.01804688 3.80078125 0.02734375 C4.75339844 0.03894531 5.70601562 0.05054688 6.6875 0.0625 C5.58712473 4.04272487 4.48150623 8.02147558 3.375 12 C3.06626953 13.11697266 2.75753906 14.23394531 2.43945312 15.38476562 C0.68663894 21.67644603 -1.18429858 27.88744173 -3.3125 34.0625 C-4.14652344 34.14886719 -4.98054687 34.23523438 -5.83984375 34.32421875 C-15.79914586 35.5677055 -23.64794376 37.9319036 -30.03125 46.03515625 C-34.73347372 53.47556512 -36.40658333 61.27158299 -36.51782227 69.96411133 C-36.53267166 70.97470108 -36.53267166 70.97470108 -36.54782104 72.00570679 C-36.57924923 74.2186133 -36.604119 76.43154124 -36.62890625 78.64453125 C-36.64949194 80.18438759 -36.67048883 81.72423849 -36.69187927 83.26408386 C-36.74693318 87.30654475 -36.79641564 91.34905522 -36.84472656 95.39160156 C-36.89506379 99.52087794 -36.95068591 103.65008279 -37.00585938 107.77929688 C-37.11323676 115.87363734 -37.2147266 123.96803786 -37.3125 132.0625 C-47.24078989 133.30353624 -57.30694599 133.0625 -67.3125 133.0625 C-67.3125 90.1625 -67.3125 47.2625 -67.3125 3.0625 C-62.6925 2.7325 -58.0725 2.4025 -53.3125 2.0625 C-51.6625 1.7325 -50.0125 1.4025 -48.3125 1.0625 C-45.0125 1.0625 -41.7125 1.0625 -38.3125 1.0625 C-37.9825 7.6625 -37.6525 14.2625 -37.3125 21.0625 C-35.3325 18.4225 -33.3525 15.7825 -31.3125 13.0625 C-22.58423787 3.59140705 -12.73827913 -0.11904934 0 0 Z " fill="#E95146" transform="translate(925.3125,150.9375)"/>
<path d="M0 0 C0 43.23 0 86.46 0 131 C-21 133 -21 133 -31 133 C-31.02311861 116.06737746 -31.04097903 99.13476119 -31.05181217 82.2021265 C-31.05697519 74.34055609 -31.06401801 66.47899565 -31.07543945 58.61743164 C-31.0853861 51.76774525 -31.09185338 44.91806608 -31.09408849 38.06837267 C-31.09539563 34.43930604 -31.09848169 30.81026006 -31.10573006 27.18120003 C-31.11374356 23.13649696 -31.11399115 19.09183011 -31.11352539 15.04711914 C-31.11712067 13.83511841 -31.12071594 12.62311768 -31.12442017 11.37438965 C-31.1230455 10.27917496 -31.12167084 9.18396027 -31.12025452 8.05555725 C-31.12117631 7.09781434 -31.1220981 6.14007143 -31.12304783 5.15330601 C-31 3 -31 3 -30 2 C-27.22702954 1.58930059 -24.47252647 1.24193609 -21.6875 0.9375 C-20.55731445 0.80118164 -20.55731445 0.80118164 -19.40429688 0.66210938 C-12.824178 -0.07146633 -6.73472144 0 0 0 Z " fill="#EA5549" transform="translate(837,152)"/>
<path d="M0 0 C7.38423383 3.74815242 12.16280492 9.5568254 15.37890625 17.11328125 C16.68550355 27.15406948 15.03411679 34.63046544 9.50390625 42.92578125 C5.16968467 47.38747993 -0.00563244 50.64851343 -6.234375 51.44921875 C-14.7491838 51.57244319 -20.03782021 49.66407512 -26.37109375 43.98828125 C-31.53613499 38.43320257 -33.79461374 32.08088462 -34.12109375 24.55078125 C-33.78851151 16.43118715 -30.41507805 9.77851035 -24.62109375 4.11328125 C-17.39127656 -1.61600784 -8.80062771 -2.97726154 0 0 Z " fill="#FEFCFB" transform="translate(830.62109375,90.88671875)"/>
<path d="M0 0 C4.52296096 3.41861142 8.43667616 6.85963183 9.5625 12.609375 C9.85155194 17.99296735 8.71317968 21.22026563 5.125 25.375 C-1.67154275 31.76339528 -7.10613698 33.76584956 -16.3125 33.65625 C-22.82666555 32.94128061 -27.74704578 29.32854506 -31.875 24.375 C-34.83350297 19.78421953 -35.82985734 15.72863837 -34.875 10.375 C-31.71647758 4.17943679 -27.09453722 0.02849147 -20.6875 -2.5 C-13.37008727 -4.62758387 -6.51103404 -4.03424535 0 0 Z " fill="#FEFBFA" transform="translate(614.875,226.625)"/>
<path d="M0 0 C7.38423383 3.74815242 12.16280492 9.5568254 15.37890625 17.11328125 C16.68550355 27.15406948 15.03411679 34.63046544 9.50390625 42.92578125 C5.16968467 47.38747993 -0.00563244 50.64851343 -6.234375 51.44921875 C-14.7491838 51.57244319 -20.03782021 49.66407512 -26.37109375 43.98828125 C-31.53613499 38.43320257 -33.79461374 32.08088462 -34.12109375 24.55078125 C-33.78851151 16.43118715 -30.41507805 9.77851035 -24.62109375 4.11328125 C-17.39127656 -1.61600784 -8.80062771 -2.97726154 0 0 Z M-24.49609375 12.11328125 C-28.15580422 17.27993133 -29.55484979 21.74779799 -28.62109375 28.11328125 C-26.49195129 34.68728297 -23.60648171 40.38175623 -17.49609375 43.92578125 C-12.4022584 45.82777127 -6.77986494 46.19471742 -1.6015625 44.421875 C3.70097219 41.6608602 7.13877594 37.71164952 9.69140625 32.36328125 C11.01467193 26.10784349 11.59660554 20.48659451 8.25390625 14.80078125 C4.61108519 9.69257608 -0.31999893 4.8813339 -6.69921875 3.7421875 C-14.35923588 3.50797834 -19.45946962 6.42867039 -24.49609375 12.11328125 Z " fill="#EC5B50" transform="translate(830.62109375,90.88671875)"/>
</svg>
